<svg width="18" height="18" viewBox="0 0 18 18" fill="none" xmlns="http://www.w3.org/2000/svg">
<g clip-path="url(#clip0_427_100)">
<path d="M12.9716 12.0305C13.4244 12.4826 13.867 12.9234 14.3086 13.365C15.4529 14.509 16.5962 15.654 17.7427 16.7959C17.9508 17.0033 18.0577 17.2343 17.9677 17.5271C17.8295 17.9768 17.292 18.1448 16.9225 17.8544C16.8627 17.8073 16.8107 17.7504 16.7565 17.6966C15.2339 16.1747 13.7113 14.6528 12.1908 13.1287C12.1377 13.0753 12.105 13.0015 12.0663 12.9424C8.78203 15.6589 4.14246 15.0201 1.65411 11.97C-0.731948 9.04499 -0.515034 4.78334 2.16282 2.13608C4.85332 -0.523492 9.08965 -0.718609 11.9855 1.66498C15.0251 4.1667 15.6505 8.77885 12.9716 12.0305ZM7.31953 13.3319C10.6277 13.3393 13.3288 10.6471 13.333 7.33885C13.3372 4.03873 10.6562 1.34506 7.35469 1.33206C4.04649 1.31905 1.34086 4.00604 1.33067 7.31424C1.32118 10.6214 4.01133 13.3246 7.31953 13.3319Z" fill="white"/>
</g>
<defs>
<clipPath id="clip0_427_100">
<rect width="18" height="18" fill="white"/>
</clipPath>
</defs>
</svg>
